<?xml version="1.0" standalone="no"?>
<!DOCTYPE svg PUBLIC "-//W3C//DTD SVG 20010904//EN"
 "http://www.w3.org/TR/2001/REC-SVG-20010904/DTD/svg10.dtd">
<svg version="1.0" xmlns="http://www.w3.org/2000/svg"
 width="346.000000pt" height="141.000000pt" viewBox="0 0 346.000000 141.000000"
 preserveAspectRatio="xMidYMid meet">

<g transform="translate(0.000000,141.000000) scale(0.100000,-0.100000)"
fill="#000000" stroke="none">
<path d="M2270 1310 l-85 -37 -3 -172 -2 -171 -33 0 c-47 -1 -99 -22 -156 -64
-62 -46 -100 -107 -108 -175 -5 -40 -8 -48 -17 -36 -9 12 -15 8 -36 -20 -26
-35 -104 -85 -115 -73 -4 4 43 66 104 139 61 73 110 138 108 144 -2 5 -23 21
-46 34 -88 48 -230 36 -318 -28 -40 -29 -41 -29 -114 -19 l-74 11 -92 -46
c-51 -26 -95 -47 -98 -47 -3 0 -5 111 -5 246 0 230 -1 246 -17 240 -119 -44
-206 -83 -212 -95 -5 -9 -12 -34 -15 -55 l-7 -39 40 6 41 5 0 -131 0 -130 -23
44 c-47 89 -194 124 -297 71 -106 -55 -170 -150 -170 -252 0 -166 108 -267
254 -239 90 17 201 114 226 197 5 17 9 -38 9 -140 l1 -168 110 0 109 0 3 105
3 105 152 -115 c84 -63 157 -115 162 -115 7 0 11 26 11 64 l0 64 73 -5 c83 -6
176 13 246 53 l44 25 31 -30 c42 -41 111 -58 176 -45 27 6 50 7 50 2 0 -4 43
-8 95 -8 l95 0 0 30 0 29 36 -24 c84 -57 268 -40 379 36 61 43 62 52 3 123
l-52 64 -26 -34 c-26 -34 -104 -83 -115 -72 -4 4 43 66 104 139 61 73 110 138
108 144 -2 5 -23 21 -48 35 -37 21 -57 25 -129 25 -73 0 -93 -4 -142 -28 -32
-16 -73 -47 -93 -69 l-35 -41 -2 290 -3 290 -85 -37z m-1459 -474 c-32 -34
-26 -80 10 -84 19 -2 33 5 53 28 l26 32 0 -32 c0 -51 -26 -98 -63 -116 -30
-14 -37 -14 -69 -1 -44 19 -72 58 -64 90 8 35 45 78 80 93 45 19 52 17 27 -10z
m1349 -5 c-15 -29 -12 -81 5 -87 10 -4 15 -20 15 -50 0 -39 -3 -44 -22 -44
-34 0 -87 36 -94 64 -9 36 21 89 64 114 45 26 45 26 32 3z m-436 -60 c3 -5
-22 -44 -56 -86 -52 -65 -63 -75 -69 -59 -19 49 4 123 44 142 27 13 74 15 81
3z m880 0 c3 -5 -22 -44 -56 -86 -52 -65 -63 -75 -69 -59 -19 49 4 123 44 142
27 13 74 15 81 3z m-1141 -72 c-9 -31 -14 -75 -11 -110 3 -39 1 -56 -6 -52
-30 18 -116 86 -116 92 1 4 134 114 146 120 1 1 -5 -22 -13 -50z"/>
<path d="M255 1195 c-56 -14 -212 -63 -227 -71 -3 -2 3 -28 13 -56 11 -29 27
-72 35 -96 l16 -43 23 21 22 21 94 -271 c51 -149 96 -276 100 -282 8 -12 97
45 106 68 3 9 -10 72 -30 142 l-35 126 74 79 c87 92 132 156 151 210 12 35 12
42 -9 78 -36 64 -76 83 -183 86 -55 1 -113 -3 -150 -12z m180 -175 c9 -15 -77
-139 -96 -140 -3 0 -11 19 -18 43 -7 23 -15 50 -17 60 -4 13 4 21 28 32 39 17
94 19 103 5z"/>
<path d="M1630 1145 c-52 -30 -99 -56 -105 -58 -9 -3 21 -73 36 -82 6 -4 271
44 277 50 7 6 -91 145 -102 144 -6 0 -54 -25 -106 -54z"/>
<path d="M2740 956 c0 -3 52 -71 116 -151 70 -89 113 -153 110 -161 -3 -8 -49
-71 -101 -139 -52 -68 -95 -126 -95 -129 0 -3 49 -6 108 -6 l108 0 48 65 c26
36 51 65 54 65 4 -1 28 -30 55 -65 l47 -65 111 0 c86 0 108 3 103 13 -5 6 -52
70 -107 140 l-98 128 107 137 c59 75 114 145 122 155 14 16 8 17 -104 17
l-119 0 -59 -81 -58 -80 -59 80 -59 81 -115 0 c-63 0 -115 -2 -115 -4z"/>
</g>
</svg>
